<svg xmlns="http://www.w3.org/2000/svg" viewBox="0 0 50 50">
    <title>x</title>
    <style>
    .cls3{
        fill:#ddd;
    }
    </style>
    <g id="Layer_6" data-name="Layer 6">
        <polygon class="cls3" points="37.36 34.5 31.64 34.5 25 27.86 22.14 25 12.62 15.48 12.63 15.47 18.34 15.47 37.36 34.5"/>
        <polygon class="cls3" points="37.38 15.48 27.86 25 25 27.86 18.36 34.5 12.63 34.5 22.14 25 25 22.14 31.66 15.47 37.37 15.47 37.38 15.48"/>
        <path class="cls3" d="M25,3A22,22,0,1,1,3,25,22,22,0,0,1,25,3m0-3A25,25,0,1,0,50,25,25,25,0,0,0,25,0Z"/>
    </g>
</svg>